<?xml version="1.0" encoding="UTF-8"?>
<svg id="Layer_2" data-name="Layer 2" xmlns="http://www.w3.org/2000/svg" viewBox="0 0 350.42 88.71">
  <g id="Layer_1-2" data-name="Layer 1-2">
    <g>
      <path d="M166.8,30.87c0-7.49.02-14.98,0-22.46,0-2.9.5-5.55,4.12-5.52,3.38.03,3.78,2.58,3.77,5.28-.02,14.14.48,28.31-.14,42.43-.98,22.33-18.19,38.3-39.73,38.11-19.92-.18-35.99-15.02-38.13-34.16-1.75-15.6-.37-31.22-.8-46.83-.08-2.77,1.09-5.04,4.35-4.84,3.03.19,3.54,2.47,3.54,5.02-.02,13.98-.02,27.95,0,41.93.01,17.26,13.92,31.09,31.32,31.16,17.58.07,31.55-13.4,31.7-30.64.06-6.49,0-12.98.02-19.47h-.02Z" style="fill: #e62a0f; stroke-width: 0px;"/>
      <path d="M263.72,17.82c1.33,14.77-2.78,27.43-14.48,37.14-4.9,4.07-10.38,6.97-16.74,7.95-2.88.44-4.23,1.69-4.02,4.89.3,4.47.1,8.97.07,13.46-.02,2.84-.5,5.7-4.14,5.5-3.11-.17-3.75-2.66-3.7-5.43.08-4.65-.19-9.32.1-13.96.18-2.79-1.04-4.02-3.42-4.34-16.93-2.3-33.22-19.74-31.83-40.64.31-4.63.06-9.3.04-13.96,0-2.72-.26-5.7,3.72-5.61,4.07.1,3.3,3.25,3.43,5.84.37,7.43-.63,14.86.88,22.31,2.98,14.71,15.99,25.52,31.17,25.39,15.52-.14,28.42-11.22,30.99-26.23,1.28-7.46.46-14.91.73-22.36.09-2.47.11-4.85,3.41-4.95,3.54-.11,3.89,2.25,3.81,5.02-.09,3.32-.02,6.65-.02,9.97h0Z" style="fill: #e62a0f; stroke-width: 0px;"/>
      <path d="M350.34,42.38c-.28-24.17-19.66-39.23-37.76-39.73-21.47-.59-39.84,15.45-40.79,37.96-.57,13.46-.08,26.95-.12,40.43,0,2.88.35,5.68,3.9,5.73,3.72.06,3.85-3.04,3.89-5.74.07-5.49.25-11-.06-16.47-.2-3.61.64-4.89,4.56-4.75,8.98.33,17.98.1,26.98.1h.01c9.33,0,18.66.15,27.98-.08,3.2-.08,3.92.94,3.8,3.93-.23,5.65-.02,11.31-.09,16.97-.04,3.02.13,6.1,4.04,6.02,3.67-.07,3.67-3.25,3.67-5.93.04-12.82.14-25.63-.01-38.44ZM330.79,52.89h-19.95c-9.31,0-18.63.03-27.94-.03-1.31,0-3.27.77-3.39-1.69-.58-11.98.07-23.48,9.82-32.48,9.4-8.67,22.19-11.08,34.42-5.89,11.33,4.8,18.87,16.13,18.9,28.41.02,7.79-3.93,11.68-11.86,11.68Z" style="fill: #e62a0f; stroke-width: 0px;"/>
      <path d="M44.42,0C20.44-.02-.17,19.01,0,44.4c.16,25.16,19.25,44.16,44.11,44.27,25.02.12,44.12-19.07,44.54-44.43C89.05,20.17,68.46,0,44.42,0ZM44.44,81.11c-20.49-.45-36.63-15.99-36.73-36.41-.11-20.81,15.75-36.94,36.43-37.05h0c19.56-.12,35.8,15.81,36.82,34.24,1.29,23.25-18.66,39.61-36.52,39.22Z" style="fill: #e62a0f; stroke-width: 0px;"/>
    </g>
  </g>
</svg>